<svg width="71" height="71" viewBox="0 0 71 71" fill="none" xmlns="http://www.w3.org/2000/svg">
<g style="mix-blend-mode:luminosity" clip-path="url(#clip0)">
<path d="M71.0002 59.1668C71.0002 65.6751 65.6752 71.0001 59.1669 71.0001H11.8336C5.32524 71.0001 0.000244141 65.6751 0.000244141 59.1668V11.8335C0.000244141 5.32512 5.32524 0.00012207 11.8336 0.00012207H59.1669C65.6752 0.00012207 71.0002 5.32512 71.0002 11.8335V59.1668Z" fill="#563D7C"/>
<path d="M19.2932 15.4298H39.4215C43.1339 15.4298 46.1155 16.2767 48.3545 17.9821C50.5936 19.6875 51.7189 22.2514 51.7189 25.697C51.7189 27.7852 51.2084 29.5718 50.1875 31.0568C49.1666 32.5417 47.7048 33.7019 45.8022 34.514V34.63C48.3545 35.1752 50.2919 36.3818 51.6029 38.2496C52.9138 40.129 53.5751 42.4725 53.5751 45.3032C53.5751 46.9274 53.2851 48.4471 52.705 49.8509C52.1249 51.2662 51.22 52.4844 49.9787 53.5053C48.7374 54.5262 47.1596 55.3383 45.2222 55.9416C43.2847 56.5448 40.9877 56.8465 38.3194 56.8465H19.2932V15.4298ZM26.5441 32.7738H38.3774C40.1176 32.7738 41.5678 32.2865 42.7279 31.2888C43.888 30.2911 44.4681 28.8757 44.4681 27.0195C44.4681 24.9313 43.946 23.4579 42.9019 22.611C41.8578 21.7641 40.3496 21.3349 38.3774 21.3349H26.5441V32.7738ZM26.5441 50.9298H39.3635C41.5678 50.9298 43.2847 50.3613 44.4913 49.2128C45.7094 48.0759 46.3243 46.4517 46.3243 44.3635C46.3243 42.31 45.721 40.7439 44.4913 39.6301C43.2615 38.5164 41.5678 37.9827 39.3635 37.9827H26.5441V50.9298Z" fill="#F3F2F0"/>
</g>
<defs>
<clipPath id="clip0">
<rect width="71" height="71" fill="white" transform="translate(0.000244141 0.00012207)"/>
</clipPath>
</defs>
</svg>
