<svg width="105" height="55" viewBox="0 0 105 55" fill="none" xmlns="http://www.w3.org/2000/svg">
<g style="mix-blend-mode:luminosity" clip-path="url(#clip0)">
<path d="M52.5002 54.8372C81.4952 54.8372 105 42.5615 105 27.4186C105 12.2758 81.4952 0.00012207 52.5002 0.00012207C23.5053 0.00012207 0.000244141 12.2758 0.000244141 27.4186C0.000244141 42.5615 23.5053 54.8372 52.5002 54.8372Z" fill="url(#paint0_radial)"/>
<path d="M52.5002 52.8001C80.3626 52.8001 102.949 41.4364 102.949 27.4186C102.949 13.4008 80.3626 2.03711 52.5002 2.03711C24.6379 2.03711 2.05103 13.4008 2.05103 27.4186C2.05103 41.4364 24.6379 52.8001 52.5002 52.8001Z" fill="#6181B6"/>
<path d="M62.7132 35.6483L65.2151 22.8557C65.7894 19.9631 65.2972 17.8039 63.8206 16.4594C62.3851 15.1557 59.9241 14.5039 56.3147 14.5039H51.9671L53.1976 8.14831C53.2386 7.90387 53.1976 7.65942 53.0335 7.45572C52.8694 7.25201 52.6644 7.17053 52.4183 7.17053H46.43C46.0198 7.17053 45.6917 7.45572 45.6097 7.82238L42.9436 21.3891C42.6976 19.8409 42.1233 18.5372 41.139 17.4779C39.3753 15.4816 36.6272 14.4631 32.8948 14.4631H21.3694C20.9593 14.4631 20.6312 14.7483 20.5491 15.115L15.1761 42.6557C15.1351 42.9002 15.1761 43.1446 15.3401 43.3483C15.5042 43.552 15.7093 43.6335 15.9554 43.6335H21.9847C22.3948 43.6335 22.723 43.3483 22.805 42.9816L24.1175 36.3409H28.5882C30.9261 36.3409 32.9358 36.0965 34.4534 35.6076C36.053 35.0779 37.4886 34.2224 38.7601 33.0409C39.7854 32.1039 40.6468 31.0446 41.303 29.9039L40.2366 35.4039C40.1956 35.6483 40.2366 35.8928 40.4007 36.0965C40.5647 36.3002 40.7698 36.3816 41.0159 36.3816H47.0042C47.4144 36.3816 47.7425 36.0965 47.8245 35.7298L50.7776 20.6557H54.8792C56.6429 20.6557 57.1351 20.9816 57.2991 21.1446C57.4222 21.2668 57.6683 21.7557 57.3811 23.2631L55.0022 35.4446C54.9612 35.6891 55.0022 35.9335 55.1663 36.1372C55.3304 36.3409 55.5354 36.4224 55.7815 36.4224H61.9339C62.303 36.3002 62.6311 36.015 62.7132 35.6483ZM34.9866 25.0557C34.6175 26.9705 33.9202 28.3557 32.8948 29.1298C31.8694 29.9039 30.1878 30.3113 27.973 30.3113H25.3069L27.2347 20.452H30.68C33.223 20.452 34.2483 20.9816 34.6585 21.4298C35.1917 22.0816 35.3147 23.3446 34.9866 25.0557Z" fill="#F3F2F0"/>
<path d="M88.3069 17.4779C86.5433 15.4817 83.7952 14.4631 80.0628 14.4631H68.4554C68.0452 14.4631 67.7171 14.7483 67.6351 15.115L62.262 42.615C62.221 42.8594 62.262 43.1039 62.4261 43.3076C62.5901 43.5113 62.7952 43.5928 63.0413 43.5928H69.0706C69.4808 43.5928 69.8089 43.3076 69.8909 42.9409L71.2034 36.3002H75.6741C78.012 36.3002 80.0218 36.0557 81.5394 35.5668C83.139 35.0372 84.5745 34.1817 85.846 33.0002C86.9124 32.0224 87.8148 30.9224 88.471 29.7409C89.1273 28.5594 89.6194 27.2557 89.9066 25.8298C90.6038 22.2854 90.0706 19.515 88.3069 17.4779ZM82.0316 25.0557C81.6624 26.9705 80.9651 28.3557 79.9398 29.1298C78.9144 29.9039 77.2327 30.3113 75.0179 30.3113H72.3519L74.2796 20.452H77.7249C80.2679 20.452 81.2933 20.9817 81.7034 21.4298C82.2776 22.0817 82.4007 23.3446 82.0316 25.0557Z" fill="#F3F2F0"/>
<path d="M30.6799 19.6372C32.9768 19.6372 34.4944 20.0446 35.2737 20.9002C36.053 21.7557 36.217 23.1817 35.8069 25.2187C35.3967 27.3372 34.5764 28.8854 33.387 29.7817C32.1975 30.678 30.3928 31.1261 27.9729 31.1261H24.3225L26.5784 19.6372H30.6799ZM15.9963 42.778H22.0256L23.4612 35.4854H28.6292C30.926 35.4854 32.7717 35.2409 34.2483 34.752C35.7249 34.2631 37.0374 33.4891 38.2678 32.3483C39.2932 31.4113 40.1135 30.3928 40.7288 29.2928C41.344 28.1928 41.7952 26.9705 42.0413 25.6261C42.6975 22.3668 42.2053 19.8409 40.6057 18.0076C39.0061 16.1743 36.4631 15.278 32.9768 15.278H21.3694L15.9963 42.778Z" fill="#F3F2F0"/>
<path d="M46.4709 7.98535H52.4592L51.0237 15.2779H56.3557C59.719 15.2779 62.0159 15.8483 63.2874 17.0298C64.5588 18.2113 64.928 20.0854 64.4358 22.6928L61.9338 35.4854H55.8635L58.2424 23.3039C58.5295 21.9187 58.4065 20.9816 57.9553 20.4928C57.5042 20.0039 56.4788 19.7187 54.9612 19.7187H50.1624L47.0862 35.4854H41.0979L46.4709 7.98535Z" fill="#F3F2F0"/>
<path d="M77.7249 19.6372C80.0217 19.6372 81.5393 20.0446 82.3186 20.9002C83.0979 21.7557 83.262 23.1817 82.8518 25.2187C82.4417 27.3372 81.6213 28.8854 80.4319 29.7817C79.2424 30.678 77.4377 31.1261 75.0178 31.1261H71.3674L73.6233 19.6372H77.7249ZM63.0413 42.778H69.0706L70.5061 35.4854H75.6741C77.971 35.4854 79.8167 35.2409 81.2932 34.752C82.7698 34.2631 84.0823 33.4891 85.3127 32.3483C86.3381 31.4113 87.1585 30.3928 87.7737 29.2928C88.3889 28.1928 88.8401 26.9705 89.0862 25.6261C89.7424 22.3668 89.2502 19.8409 87.6506 18.0076C86.051 16.1743 83.5081 15.278 80.0217 15.278H68.4143L63.0413 42.778Z" fill="#F3F2F0"/>
</g>
<defs>
<radialGradient id="paint0_radial" cx="0" cy="0" r="1" gradientUnits="userSpaceOnUse" gradientTransform="translate(31.5215 9.64252) scale(68.9453 68.4832)">
<stop stop-color="white"/>
<stop offset="0.5" stop-color="#4C6B97"/>
<stop offset="1" stop-color="#231F20"/>
</radialGradient>
<clipPath id="clip0">
<rect width="105" height="55" fill="white" transform="translate(0.000244141 0.00012207)"/>
</clipPath>
</defs>
</svg>
